<mxfile host="app.diagrams.net" modified="2024-03-17T17:11:49.677Z" agent="Mozilla/5.0 (Macintosh; Intel Mac OS X 10_15_7) AppleWebKit/605.1.15 (KHTML, like Gecko) Version/17.4 Safari/605.1.15" etag="_LyhD9ew1C2l2M5y-meE" version="24.0.6" type="github">
  <diagram id="C5RBs43oDa-KdzZeNtuy" name="Page-1">
    <mxGraphModel dx="3640" dy="1600" grid="1" gridSize="10" guides="1" tooltips="1" connect="1" arrows="1" fold="1" page="1" pageScale="1" pageWidth="827" pageHeight="1169" math="0" shadow="0">
      <root>
        <mxCell id="WIyWlLk6GJQsqaUBKTNV-0" />
        <mxCell id="WIyWlLk6GJQsqaUBKTNV-1" parent="WIyWlLk6GJQsqaUBKTNV-0" />
        <mxCell id="lNqW5s7IK-G2ixFsQr0q-0" value="Game" style="swimlane;fontStyle=1;align=center;verticalAlign=top;childLayout=stackLayout;horizontal=1;startSize=26;horizontalStack=0;resizeParent=1;resizeParentMax=0;resizeLast=0;collapsible=1;marginBottom=0;whiteSpace=wrap;html=1;" parent="WIyWlLk6GJQsqaUBKTNV-1" vertex="1">
          <mxGeometry x="210" y="160" width="440" height="610" as="geometry" />
        </mxCell>
        <mxCell id="lNqW5s7IK-G2ixFsQr0q-1" value="board: CommonBoard&lt;div&gt;numOfPlayers: int&lt;/div&gt;&lt;div&gt;players: Player[]&lt;/div&gt;&lt;div&gt;listeners: GameListeners[] -------------------------&lt;/div&gt;&lt;div&gt;goals: GlobalGoal[]&lt;/div&gt;&lt;div&gt;firstPlayer: int&lt;/div&gt;&lt;div&gt;currentPlayer: int&lt;/div&gt;&lt;div&gt;started: boolean&lt;/div&gt;&lt;div&gt;lastTurn: boolean&lt;/div&gt;" style="text;strokeColor=none;fillColor=none;align=left;verticalAlign=top;spacingLeft=4;spacingRight=4;overflow=hidden;rotatable=0;points=[[0,0.5],[1,0.5]];portConstraint=eastwest;whiteSpace=wrap;html=1;" parent="lNqW5s7IK-G2ixFsQr0q-0" vertex="1">
          <mxGeometry y="26" width="440" height="154" as="geometry" />
        </mxCell>
        <mxCell id="lNqW5s7IK-G2ixFsQr0q-2" value="" style="line;strokeWidth=1;fillColor=none;align=left;verticalAlign=middle;spacingTop=-1;spacingLeft=3;spacingRight=3;rotatable=0;labelPosition=right;points=[];portConstraint=eastwest;strokeColor=inherit;" parent="lNqW5s7IK-G2ixFsQr0q-0" vertex="1">
          <mxGeometry y="180" width="440" height="8" as="geometry" />
        </mxCell>
        <mxCell id="lNqW5s7IK-G2ixFsQr0q-3" value="Game(numOfPlayers: int)&lt;div&gt;getView(): GameView ------------------------&lt;/div&gt;&lt;div&gt;init(): void --------------------&lt;/div&gt;&lt;div&gt;isGameStarted(): boolean&lt;/div&gt;&lt;div&gt;addPlayer(username: String, listener : GameListener):void&lt;/div&gt;&lt;div&gt;dealCards() : void&lt;br&gt;&lt;/div&gt;&lt;div&gt;initializeGame() : void&lt;/div&gt;&lt;div&gt;&lt;div&gt;connect(username: String, listener : GameListener):void&lt;/div&gt;&lt;div&gt;reconnect(username: String, listener : GameListener):void&lt;/div&gt;&lt;/div&gt;&lt;div&gt;&lt;div&gt;disconnect(username: String):void&lt;/div&gt;&lt;/div&gt;&lt;div&gt;getNumOfPlayers(): int&lt;/div&gt;&lt;div&gt;getNumOfActivePlayers(): int&lt;/div&gt;&lt;div&gt;nextPlayer(): boolean --------------&lt;/div&gt;&lt;div&gt;getObjectives(): GlobalObjective[]&lt;/div&gt;&lt;div&gt;getPlayer(p: int): Player&lt;/div&gt;&lt;div&gt;getListener(p: int) : GameListener --------------&lt;/div&gt;&lt;div&gt;checkGlobalObjectives(): void ---------------------&lt;/div&gt;&lt;div&gt;getCommonBoard(): CommonBoard&lt;/div&gt;&lt;div&gt;setWinner(p: int) : void&lt;/div&gt;&lt;div&gt;endGame(): void&lt;/div&gt;&lt;div&gt;checkForEndGame(): boolean&lt;/div&gt;&lt;div&gt;notifyAllListeners(gameView: GameView) : void&lt;/div&gt;&lt;div&gt;notifyAllListeners(): void&lt;/div&gt;&lt;div&gt;&lt;br&gt;&lt;/div&gt;&lt;div&gt;&lt;br&gt;&lt;/div&gt;&lt;div&gt;&lt;br&gt;&lt;/div&gt;&lt;div&gt;&lt;br&gt;&lt;/div&gt;&lt;div&gt;&lt;br&gt;&lt;/div&gt;" style="text;strokeColor=none;fillColor=none;align=left;verticalAlign=top;spacingLeft=4;spacingRight=4;overflow=hidden;rotatable=0;points=[[0,0.5],[1,0.5]];portConstraint=eastwest;whiteSpace=wrap;html=1;" parent="lNqW5s7IK-G2ixFsQr0q-0" vertex="1">
          <mxGeometry y="188" width="440" height="422" as="geometry" />
        </mxCell>
        <mxCell id="lNqW5s7IK-G2ixFsQr0q-5" value="Player&lt;div&gt;&lt;br&gt;&lt;/div&gt;" style="swimlane;fontStyle=1;align=center;verticalAlign=top;childLayout=stackLayout;horizontal=1;startSize=26;horizontalStack=0;resizeParent=1;resizeParentMax=0;resizeLast=0;collapsible=1;marginBottom=0;whiteSpace=wrap;html=1;" parent="WIyWlLk6GJQsqaUBKTNV-1" vertex="1">
          <mxGeometry x="950" y="160" width="380" height="380" as="geometry" />
        </mxCell>
        <mxCell id="lNqW5s7IK-G2ixFsQr0q-6" value="-id: int&lt;div&gt;&lt;div&gt;-username: string&lt;/div&gt;&lt;div&gt;-cardHand: Card[]&lt;/div&gt;&lt;div&gt;-personalBoard: PersonalBoard&lt;/div&gt;&lt;div&gt;-secretObjectives: objectiveCard[]&lt;/div&gt;&lt;div&gt;-chosenObjective: objectiveCard&lt;/div&gt;&lt;div&gt;-starterCard: StarterCard&lt;/div&gt;&lt;div&gt;-winner: Boolean&lt;/div&gt;&lt;div&gt;-scoreBoardPosition: int&lt;/div&gt;&lt;div&gt;-finalScore: int&lt;/div&gt;&lt;div&gt;&lt;br&gt;&lt;/div&gt;&lt;div&gt;&lt;br&gt;&lt;/div&gt;&lt;/div&gt;" style="text;strokeColor=none;fillColor=none;align=left;verticalAlign=top;spacingLeft=4;spacingRight=4;overflow=hidden;rotatable=0;points=[[0,0.5],[1,0.5]];portConstraint=eastwest;whiteSpace=wrap;html=1;" parent="lNqW5s7IK-G2ixFsQr0q-5" vertex="1">
          <mxGeometry y="26" width="380" height="164" as="geometry" />
        </mxCell>
        <mxCell id="lNqW5s7IK-G2ixFsQr0q-7" value="" style="line;strokeWidth=1;fillColor=none;align=left;verticalAlign=middle;spacingTop=-1;spacingLeft=3;spacingRight=3;rotatable=0;labelPosition=right;points=[];portConstraint=eastwest;strokeColor=inherit;" parent="lNqW5s7IK-G2ixFsQr0q-5" vertex="1">
          <mxGeometry y="190" width="380" height="8" as="geometry" />
        </mxCell>
        <mxCell id="lNqW5s7IK-G2ixFsQr0q-8" value="+Player(id: int, username: string)&lt;div&gt;+getUsername(): String&lt;/div&gt;&lt;div&gt;+getScore(): int&lt;/div&gt;&lt;div&gt;&lt;div&gt;+chooseObjectiveCard() : void&lt;/div&gt;&lt;div&gt;+placeStarterCard(): void&lt;/div&gt;&lt;div&gt;+chooseGamecard(): void&lt;/div&gt;&lt;div&gt;+placeGamecard(): void&lt;/div&gt;&lt;div&gt;+isWinner(): boolean&lt;/div&gt;&lt;div&gt;+getChosenObjective(): void&lt;/div&gt;&lt;div&gt;+setWinner(winner: boolean)&lt;/div&gt;&lt;div&gt;+first(): void -------------------------&lt;/div&gt;&lt;div&gt;&amp;nbsp;&lt;/div&gt;&lt;/div&gt;" style="text;strokeColor=none;fillColor=none;align=left;verticalAlign=top;spacingLeft=4;spacingRight=4;overflow=hidden;rotatable=0;points=[[0,0.5],[1,0.5]];portConstraint=eastwest;whiteSpace=wrap;html=1;" parent="lNqW5s7IK-G2ixFsQr0q-5" vertex="1">
          <mxGeometry y="198" width="380" height="182" as="geometry" />
        </mxCell>
        <mxCell id="lNqW5s7IK-G2ixFsQr0q-13" value="Controller" style="swimlane;fontStyle=1;align=center;verticalAlign=top;childLayout=stackLayout;horizontal=1;startSize=26;horizontalStack=0;resizeParent=1;resizeParentMax=0;resizeLast=0;collapsible=1;marginBottom=0;whiteSpace=wrap;html=1;fillColor=#f8cecc;strokeColor=#b85450;" parent="WIyWlLk6GJQsqaUBKTNV-1" vertex="1">
          <mxGeometry x="-350" y="70" width="390" height="310" as="geometry" />
        </mxCell>
        <mxCell id="lNqW5s7IK-G2ixFsQr0q-14" value="-gameServer: GamerServer&lt;div&gt;-model: Game&lt;/div&gt;&lt;div&gt;&lt;br&gt;&lt;/div&gt;&lt;div&gt;&lt;br&gt;&lt;/div&gt;" style="text;strokeColor=none;fillColor=none;align=left;verticalAlign=top;spacingLeft=4;spacingRight=4;overflow=hidden;rotatable=0;points=[[0,0.5],[1,0.5]];portConstraint=eastwest;whiteSpace=wrap;html=1;" parent="lNqW5s7IK-G2ixFsQr0q-13" vertex="1">
          <mxGeometry y="26" width="390" height="54" as="geometry" />
        </mxCell>
        <mxCell id="lNqW5s7IK-G2ixFsQr0q-15" value="" style="line;strokeWidth=1;fillColor=none;align=left;verticalAlign=middle;spacingTop=-1;spacingLeft=3;spacingRight=3;rotatable=0;labelPosition=right;points=[];portConstraint=eastwest;strokeColor=inherit;" parent="lNqW5s7IK-G2ixFsQr0q-13" vertex="1">
          <mxGeometry y="80" width="390" height="8" as="geometry" />
        </mxCell>
        <mxCell id="lNqW5s7IK-G2ixFsQr0q-16" value="Controller(model: Game, server: Gameserver)&lt;div&gt;isGameStarted(): boolean&lt;/div&gt;&lt;div&gt;&lt;div&gt;addPlayer(username: String, listener : GameListener):void&lt;/div&gt;&lt;div&gt;&lt;div&gt;connect(username: String, listener : GameListener):void&lt;/div&gt;&lt;div&gt;reconnect(username: String, listener : GameListener):void&lt;/div&gt;&lt;/div&gt;&lt;div&gt;disconnect(username: String):void&lt;/div&gt;&lt;div&gt;getNumOfPlayers(): int&lt;/div&gt;&lt;div&gt;getNumOfActivePlayers(): int&lt;/div&gt;&lt;/div&gt;&lt;div&gt;endGame(): void&lt;/div&gt;" style="text;strokeColor=none;fillColor=none;align=left;verticalAlign=top;spacingLeft=4;spacingRight=4;overflow=hidden;rotatable=0;points=[[0,0.5],[1,0.5]];portConstraint=eastwest;whiteSpace=wrap;html=1;" parent="lNqW5s7IK-G2ixFsQr0q-13" vertex="1">
          <mxGeometry y="88" width="390" height="222" as="geometry" />
        </mxCell>
        <mxCell id="lNqW5s7IK-G2ixFsQr0q-17" value="1" style="endArrow=open;html=1;endSize=12;startArrow=diamondThin;startSize=14;startFill=1;edgeStyle=orthogonalEdgeStyle;align=left;verticalAlign=bottom;rounded=0;exitX=1.008;exitY=0.362;exitDx=0;exitDy=0;exitPerimeter=0;entryX=0.001;entryY=0.125;entryDx=0;entryDy=0;entryPerimeter=0;fillColor=#f8cecc;strokeColor=#b85450;" parent="WIyWlLk6GJQsqaUBKTNV-1" source="lNqW5s7IK-G2ixFsQr0q-16" target="lNqW5s7IK-G2ixFsQr0q-3" edge="1">
          <mxGeometry x="-1" y="3" relative="1" as="geometry">
            <mxPoint x="80" y="350" as="sourcePoint" />
            <mxPoint x="240" y="350" as="targetPoint" />
          </mxGeometry>
        </mxCell>
        <mxCell id="lNqW5s7IK-G2ixFsQr0q-22" value="" style="endArrow=open;endFill=1;endSize=12;html=1;rounded=0;exitX=1.009;exitY=0.821;exitDx=0;exitDy=0;exitPerimeter=0;entryX=-0.01;entryY=0.787;entryDx=0;entryDy=0;entryPerimeter=0;" parent="WIyWlLk6GJQsqaUBKTNV-1" source="lNqW5s7IK-G2ixFsQr0q-1" target="lNqW5s7IK-G2ixFsQr0q-6" edge="1">
          <mxGeometry width="160" relative="1" as="geometry">
            <mxPoint x="770" y="380" as="sourcePoint" />
            <mxPoint x="930" y="380" as="targetPoint" />
          </mxGeometry>
        </mxCell>
        <mxCell id="lNqW5s7IK-G2ixFsQr0q-23" value="" style="endArrow=none;html=1;edgeStyle=orthogonalEdgeStyle;rounded=0;exitX=0.464;exitY=1.023;exitDx=0;exitDy=0;exitPerimeter=0;" parent="WIyWlLk6GJQsqaUBKTNV-1" target="lNqW5s7IK-G2ixFsQr0q-27" edge="1">
          <mxGeometry relative="1" as="geometry">
            <mxPoint x="1333.7400000000002" y="410.01599999999985" as="sourcePoint" />
            <mxPoint x="1320" y="660" as="targetPoint" />
            <Array as="points">
              <mxPoint x="1473.74" y="410" />
              <mxPoint x="1473.74" y="663" />
              <mxPoint x="1319.74" y="663" />
            </Array>
          </mxGeometry>
        </mxCell>
        <mxCell id="lNqW5s7IK-G2ixFsQr0q-27" value="CommonBoard" style="swimlane;fontStyle=1;align=center;verticalAlign=top;childLayout=stackLayout;horizontal=1;startSize=26;horizontalStack=0;resizeParent=1;resizeParentMax=0;resizeLast=0;collapsible=1;marginBottom=0;whiteSpace=wrap;html=1;" parent="WIyWlLk6GJQsqaUBKTNV-1" vertex="1">
          <mxGeometry x="1240" y="615" width="290" height="258" as="geometry" />
        </mxCell>
        <mxCell id="lNqW5s7IK-G2ixFsQr0q-28" value="&lt;div&gt;-decks: Deck[]&lt;/div&gt;-tablecards: Card[][]&amp;nbsp;&lt;div&gt;-boardNotes: CommonBoardNotes[]&lt;/div&gt;&lt;div&gt;-goldDeck: ConcreteDeck&lt;br&gt;&lt;/div&gt;&lt;div&gt;-resourceDeck: ConcreteDeck&lt;/div&gt;&lt;div&gt;-objectiveDeck: ConcreteDeck&lt;/div&gt;&lt;div&gt;&lt;br&gt;&lt;/div&gt;&lt;div&gt;&lt;br&gt;&lt;/div&gt;&lt;div&gt;&lt;br&gt;&lt;/div&gt;&lt;div&gt;&lt;br&gt;&lt;/div&gt;" style="text;strokeColor=none;fillColor=none;align=left;verticalAlign=top;spacingLeft=4;spacingRight=4;overflow=hidden;rotatable=0;points=[[0,0.5],[1,0.5]];portConstraint=eastwest;whiteSpace=wrap;html=1;" parent="lNqW5s7IK-G2ixFsQr0q-27" vertex="1">
          <mxGeometry y="26" width="290" height="104" as="geometry" />
        </mxCell>
        <mxCell id="lNqW5s7IK-G2ixFsQr0q-29" value="" style="line;strokeWidth=1;fillColor=none;align=left;verticalAlign=middle;spacingTop=-1;spacingLeft=3;spacingRight=3;rotatable=0;labelPosition=right;points=[];portConstraint=eastwest;strokeColor=inherit;" parent="lNqW5s7IK-G2ixFsQr0q-27" vertex="1">
          <mxGeometry y="130" width="290" height="8" as="geometry" />
        </mxCell>
        <mxCell id="lNqW5s7IK-G2ixFsQr0q-30" value="-CommonBoard()&lt;div&gt;-initializeBoard()&lt;br&gt;&lt;div&gt;-drawFromDeck(int): Card&lt;/div&gt;&lt;div&gt;-drawFromTable(int, int, int): Card&lt;br&gt;&lt;/div&gt;&lt;div&gt;-getPlayerPosition(int): int&lt;/div&gt;&lt;div&gt;-movePlayer(int, int): void&lt;/div&gt;&lt;div&gt;getView(): GameBoardView()&lt;/div&gt;&lt;/div&gt;" style="text;strokeColor=none;fillColor=none;align=left;verticalAlign=top;spacingLeft=4;spacingRight=4;overflow=hidden;rotatable=0;points=[[0,0.5],[1,0.5]];portConstraint=eastwest;whiteSpace=wrap;html=1;" parent="lNqW5s7IK-G2ixFsQr0q-27" vertex="1">
          <mxGeometry y="138" width="290" height="120" as="geometry" />
        </mxCell>
        <mxCell id="lNqW5s7IK-G2ixFsQr0q-35" value="PersonalBoard" style="swimlane;fontStyle=1;align=center;verticalAlign=top;childLayout=stackLayout;horizontal=1;startSize=26;horizontalStack=0;resizeParent=1;resizeParentMax=0;resizeLast=0;collapsible=1;marginBottom=0;whiteSpace=wrap;html=1;" parent="WIyWlLk6GJQsqaUBKTNV-1" vertex="1">
          <mxGeometry x="730" y="840" width="300" height="390" as="geometry" />
        </mxCell>
        <mxCell id="lNqW5s7IK-G2ixFsQr0q-36" value="structure: Cell[][]&lt;div&gt;points: int&lt;/div&gt;&lt;div&gt;deltapoints: int&lt;/div&gt;&lt;div&gt;numMushrooms: int&lt;/div&gt;&lt;div&gt;numLeaves: int&lt;/div&gt;&lt;div&gt;numButterflies: int&lt;/div&gt;&lt;div&gt;numWolves: int&lt;/div&gt;&lt;div&gt;numParchment: int&lt;/div&gt;&lt;div&gt;numFeather: int&lt;/div&gt;&lt;div&gt;numPotions: int&lt;/div&gt;&lt;div&gt;&lt;br&gt;&lt;/div&gt;&lt;div&gt;&lt;br&gt;&lt;/div&gt;" style="text;strokeColor=none;fillColor=none;align=left;verticalAlign=top;spacingLeft=4;spacingRight=4;overflow=hidden;rotatable=0;points=[[0,0.5],[1,0.5]];portConstraint=eastwest;whiteSpace=wrap;html=1;" parent="lNqW5s7IK-G2ixFsQr0q-35" vertex="1">
          <mxGeometry y="26" width="300" height="174" as="geometry" />
        </mxCell>
        <mxCell id="lNqW5s7IK-G2ixFsQr0q-37" value="" style="line;strokeWidth=1;fillColor=none;align=left;verticalAlign=middle;spacingTop=-1;spacingLeft=3;spacingRight=3;rotatable=0;labelPosition=right;points=[];portConstraint=eastwest;strokeColor=inherit;" parent="lNqW5s7IK-G2ixFsQr0q-35" vertex="1">
          <mxGeometry y="200" width="300" height="8" as="geometry" />
        </mxCell>
        <mxCell id="lNqW5s7IK-G2ixFsQr0q-38" value="personalBoard()&lt;div&gt;&lt;div&gt;updateMushrooms(): int&lt;/div&gt;&lt;div&gt;updateLeaves(): int&lt;/div&gt;&lt;div&gt;updateButterflies(): int&lt;/div&gt;&lt;div&gt;updateWolves(): int&lt;/div&gt;&lt;div&gt;updateParchment: int&lt;/div&gt;&lt;div&gt;updatePlumes(): int&lt;/div&gt;&lt;div&gt;updatePotions(): int&lt;/div&gt;&lt;/div&gt;&lt;div&gt;addCard(Cell, Cell, Cell, Cell): void&lt;/div&gt;" style="text;strokeColor=none;fillColor=none;align=left;verticalAlign=top;spacingLeft=4;spacingRight=4;overflow=hidden;rotatable=0;points=[[0,0.5],[1,0.5]];portConstraint=eastwest;whiteSpace=wrap;html=1;" parent="lNqW5s7IK-G2ixFsQr0q-35" vertex="1">
          <mxGeometry y="208" width="300" height="182" as="geometry" />
        </mxCell>
        <mxCell id="lNqW5s7IK-G2ixFsQr0q-40" value="1" style="endArrow=open;html=1;endSize=12;startArrow=diamondThin;startSize=14;startFill=1;edgeStyle=orthogonalEdgeStyle;align=left;verticalAlign=bottom;rounded=0;exitX=1.007;exitY=0.581;exitDx=0;exitDy=0;exitPerimeter=0;entryX=0.593;entryY=-0.01;entryDx=0;entryDy=0;entryPerimeter=0;" parent="WIyWlLk6GJQsqaUBKTNV-1" source="lNqW5s7IK-G2ixFsQr0q-3" target="lNqW5s7IK-G2ixFsQr0q-35" edge="1">
          <mxGeometry x="-1" y="3" relative="1" as="geometry">
            <mxPoint x="800" y="480" as="sourcePoint" />
            <mxPoint x="960" y="480" as="targetPoint" />
            <Array as="points">
              <mxPoint x="830" y="593" />
              <mxPoint x="830" y="770" />
              <mxPoint x="908" y="770" />
            </Array>
          </mxGeometry>
        </mxCell>
        <mxCell id="lNqW5s7IK-G2ixFsQr0q-41" value="" style="endArrow=none;html=1;edgeStyle=orthogonalEdgeStyle;rounded=0;exitX=0.076;exitY=1.004;exitDx=0;exitDy=0;exitPerimeter=0;" parent="WIyWlLk6GJQsqaUBKTNV-1" source="lNqW5s7IK-G2ixFsQr0q-8" edge="1">
          <mxGeometry relative="1" as="geometry">
            <mxPoint x="1080" y="550" as="sourcePoint" />
            <mxPoint x="980" y="830" as="targetPoint" />
            <Array as="points">
              <mxPoint x="979" y="720" />
              <mxPoint x="980" y="720" />
            </Array>
          </mxGeometry>
        </mxCell>
        <mxCell id="lNqW5s7IK-G2ixFsQr0q-72" value="Card" style="swimlane;fontStyle=1;align=center;verticalAlign=top;childLayout=stackLayout;horizontal=1;startSize=26;horizontalStack=0;resizeParent=1;resizeParentMax=0;resizeLast=0;collapsible=1;marginBottom=0;whiteSpace=wrap;html=1;" parent="WIyWlLk6GJQsqaUBKTNV-1" vertex="1">
          <mxGeometry x="414" y="1262" width="220" height="114" as="geometry" />
        </mxCell>
        <mxCell id="lNqW5s7IK-G2ixFsQr0q-73" value="-id: int" style="text;strokeColor=none;fillColor=none;align=left;verticalAlign=top;spacingLeft=4;spacingRight=4;overflow=hidden;rotatable=0;points=[[0,0.5],[1,0.5]];portConstraint=eastwest;whiteSpace=wrap;html=1;" parent="lNqW5s7IK-G2ixFsQr0q-72" vertex="1">
          <mxGeometry y="26" width="220" height="54" as="geometry" />
        </mxCell>
        <mxCell id="lNqW5s7IK-G2ixFsQr0q-74" value="" style="line;strokeWidth=1;fillColor=none;align=left;verticalAlign=middle;spacingTop=-1;spacingLeft=3;spacingRight=3;rotatable=0;labelPosition=right;points=[];portConstraint=eastwest;strokeColor=inherit;" parent="lNqW5s7IK-G2ixFsQr0q-72" vertex="1">
          <mxGeometry y="80" width="220" height="8" as="geometry" />
        </mxCell>
        <mxCell id="lNqW5s7IK-G2ixFsQr0q-75" value="+Card()" style="text;strokeColor=none;fillColor=none;align=left;verticalAlign=top;spacingLeft=4;spacingRight=4;overflow=hidden;rotatable=0;points=[[0,0.5],[1,0.5]];portConstraint=eastwest;whiteSpace=wrap;html=1;" parent="lNqW5s7IK-G2ixFsQr0q-72" vertex="1">
          <mxGeometry y="88" width="220" height="26" as="geometry" />
        </mxCell>
        <mxCell id="lNqW5s7IK-G2ixFsQr0q-76" value="enum Orientation" style="swimlane;fontStyle=0;childLayout=stackLayout;horizontal=1;startSize=26;fillColor=none;horizontalStack=0;resizeParent=1;resizeParentMax=0;resizeLast=0;collapsible=1;marginBottom=0;whiteSpace=wrap;html=1;" parent="WIyWlLk6GJQsqaUBKTNV-1" vertex="1">
          <mxGeometry x="-140" y="1100" width="140" height="78" as="geometry" />
        </mxCell>
        <mxCell id="lNqW5s7IK-G2ixFsQr0q-77" value="FRONT" style="text;strokeColor=none;fillColor=none;align=left;verticalAlign=top;spacingLeft=4;spacingRight=4;overflow=hidden;rotatable=0;points=[[0,0.5],[1,0.5]];portConstraint=eastwest;whiteSpace=wrap;html=1;" parent="lNqW5s7IK-G2ixFsQr0q-76" vertex="1">
          <mxGeometry y="26" width="140" height="26" as="geometry" />
        </mxCell>
        <mxCell id="lNqW5s7IK-G2ixFsQr0q-78" value="BACK" style="text;strokeColor=none;fillColor=none;align=left;verticalAlign=top;spacingLeft=4;spacingRight=4;overflow=hidden;rotatable=0;points=[[0,0.5],[1,0.5]];portConstraint=eastwest;whiteSpace=wrap;html=1;" parent="lNqW5s7IK-G2ixFsQr0q-76" vertex="1">
          <mxGeometry y="52" width="140" height="26" as="geometry" />
        </mxCell>
        <mxCell id="lNqW5s7IK-G2ixFsQr0q-80" value="GoldCard" style="swimlane;fontStyle=1;align=center;verticalAlign=top;childLayout=stackLayout;horizontal=1;startSize=26;horizontalStack=0;resizeParent=1;resizeParentMax=0;resizeLast=0;collapsible=1;marginBottom=0;whiteSpace=wrap;html=1;" parent="WIyWlLk6GJQsqaUBKTNV-1" vertex="1">
          <mxGeometry x="400" y="2070" width="270" height="340" as="geometry" />
        </mxCell>
        <mxCell id="lNqW5s7IK-G2ixFsQr0q-81" value="&lt;div style=&quot;caret-color: rgb(0, 0, 0); color: rgb(0, 0, 0); font-family: Helvetica; font-size: 12px; font-style: normal; font-variant-caps: normal; font-weight: 400; letter-spacing: normal; orphans: auto; text-align: left; text-indent: 0px; text-transform: none; white-space: normal; widows: auto; word-spacing: 0px; -webkit-text-stroke-width: 0px; text-decoration: none;&quot;&gt;-type: Type&lt;/div&gt;&lt;div style=&quot;caret-color: rgb(0, 0, 0); color: rgb(0, 0, 0); font-family: Helvetica; font-size: 12px; font-style: normal; font-variant-caps: normal; font-weight: 400; letter-spacing: normal; orphans: auto; text-align: left; text-indent: 0px; text-transform: none; white-space: normal; widows: auto; word-spacing: 0px; -webkit-text-stroke-width: 0px; text-decoration: none;&quot;&gt;-visibileCorner: int&lt;/div&gt;&lt;div style=&quot;caret-color: rgb(0, 0, 0); color: rgb(0, 0, 0); font-family: Helvetica; font-size: 12px; font-style: normal; font-variant-caps: normal; font-weight: 400; letter-spacing: normal; orphans: auto; text-align: left; text-indent: 0px; text-transform: none; white-space: normal; widows: auto; word-spacing: 0px; -webkit-text-stroke-width: 0px; text-decoration: none;&quot;&gt;-color: Color&lt;/div&gt;&lt;div style=&quot;caret-color: rgb(0, 0, 0); color: rgb(0, 0, 0); font-family: Helvetica; font-size: 12px; font-style: normal; font-variant-caps: normal; font-weight: 400; letter-spacing: normal; orphans: auto; text-align: left; text-indent: 0px; text-transform: none; white-space: normal; widows: auto; word-spacing: 0px; -webkit-text-stroke-width: 0px; text-decoration: none;&quot;&gt;-NE: Cell&lt;/div&gt;&lt;div style=&quot;caret-color: rgb(0, 0, 0); color: rgb(0, 0, 0); font-family: Helvetica; font-size: 12px; font-style: normal; font-variant-caps: normal; font-weight: 400; letter-spacing: normal; orphans: auto; text-align: left; text-indent: 0px; text-transform: none; white-space: normal; widows: auto; word-spacing: 0px; -webkit-text-stroke-width: 0px; text-decoration: none;&quot;&gt;-SE: Cell&lt;/div&gt;&lt;div style=&quot;caret-color: rgb(0, 0, 0); color: rgb(0, 0, 0); font-family: Helvetica; font-size: 12px; font-style: normal; font-variant-caps: normal; font-weight: 400; letter-spacing: normal; orphans: auto; text-align: left; text-indent: 0px; text-transform: none; white-space: normal; widows: auto; word-spacing: 0px; -webkit-text-stroke-width: 0px; text-decoration: none;&quot;&gt;-SW: Cell&lt;/div&gt;&lt;div style=&quot;caret-color: rgb(0, 0, 0); color: rgb(0, 0, 0); font-family: Helvetica; font-size: 12px; font-style: normal; font-variant-caps: normal; font-weight: 400; letter-spacing: normal; orphans: auto; text-align: left; text-indent: 0px; text-transform: none; white-space: normal; widows: auto; word-spacing: 0px; -webkit-text-stroke-width: 0px; text-decoration: none;&quot;&gt;-NW: Cell&lt;/div&gt;&lt;div style=&quot;caret-color: rgb(0, 0, 0); color: rgb(0, 0, 0); font-family: Helvetica; font-size: 12px; font-style: normal; font-variant-caps: normal; font-weight: 400; letter-spacing: normal; orphans: auto; text-align: left; text-indent: 0px; text-transform: none; white-space: normal; widows: auto; word-spacing: 0px; -webkit-text-stroke-width: 0px; text-decoration: none;&quot;&gt;-points: int&lt;/div&gt;&lt;div style=&quot;caret-color: rgb(0, 0, 0); color: rgb(0, 0, 0); font-family: Helvetica; font-size: 12px; font-style: normal; font-variant-caps: normal; font-weight: 400; letter-spacing: normal; orphans: auto; text-align: left; text-indent: 0px; text-transform: none; white-space: normal; widows: auto; word-spacing: 0px; -webkit-text-stroke-width: 0px; text-decoration: none;&quot;&gt;-mushroomRequired: Optional&amp;lt;int&amp;gt;&lt;/div&gt;&lt;div style=&quot;caret-color: rgb(0, 0, 0); color: rgb(0, 0, 0); font-family: Helvetica; font-size: 12px; font-style: normal; font-variant-caps: normal; font-weight: 400; letter-spacing: normal; orphans: auto; text-align: left; text-indent: 0px; text-transform: none; white-space: normal; widows: auto; word-spacing: 0px; -webkit-text-stroke-width: 0px; text-decoration: none;&quot;&gt;-butterflyRequired: Optional&amp;lt;int&amp;gt;&lt;/div&gt;&lt;div style=&quot;caret-color: rgb(0, 0, 0); color: rgb(0, 0, 0); font-family: Helvetica; font-size: 12px; font-style: normal; font-variant-caps: normal; font-weight: 400; letter-spacing: normal; orphans: auto; text-align: left; text-indent: 0px; text-transform: none; white-space: normal; widows: auto; word-spacing: 0px; -webkit-text-stroke-width: 0px; text-decoration: none;&quot;&gt;-wolfRequired: Optional&amp;lt;int&amp;gt;&lt;/div&gt;&lt;div style=&quot;caret-color: rgb(0, 0, 0); color: rgb(0, 0, 0); font-family: Helvetica; font-size: 12px; font-style: normal; font-variant-caps: normal; font-weight: 400; letter-spacing: normal; orphans: auto; text-align: left; text-indent: 0px; text-transform: none; white-space: normal; widows: auto; word-spacing: 0px; -webkit-text-stroke-width: 0px; text-decoration: none;&quot;&gt;-leafRequired: Optional&amp;lt;int&amp;gt;&lt;/div&gt;&lt;div style=&quot;caret-color: rgb(0, 0, 0); color: rgb(0, 0, 0); font-family: Helvetica; font-size: 12px; font-style: normal; font-variant-caps: normal; font-weight: 400; letter-spacing: normal; orphans: auto; text-align: left; text-indent: 0px; text-transform: none; white-space: normal; widows: auto; word-spacing: 0px; -webkit-text-stroke-width: 0px; text-decoration: none;&quot;&gt;-coverCorners: Optional&amp;lt;boolean&amp;gt;&amp;nbsp;&lt;/div&gt;&lt;div style=&quot;caret-color: rgb(0, 0, 0); color: rgb(0, 0, 0); font-family: Helvetica; font-size: 12px; font-style: normal; font-variant-caps: normal; font-weight: 400; letter-spacing: normal; orphans: auto; text-align: left; text-indent: 0px; text-transform: none; white-space: normal; widows: auto; word-spacing: 0px; -webkit-text-stroke-width: 0px; text-decoration: none;&quot;&gt;-potionCount: Optional&amp;lt;int&amp;gt;&lt;/div&gt;&lt;div style=&quot;caret-color: rgb(0, 0, 0); color: rgb(0, 0, 0); font-family: Helvetica; font-size: 12px; font-style: normal; font-variant-caps: normal; font-weight: 400; letter-spacing: normal; orphans: auto; text-align: left; text-indent: 0px; text-transform: none; white-space: normal; widows: auto; word-spacing: 0px; -webkit-text-stroke-width: 0px; text-decoration: none;&quot;&gt;-parchmentCount: Optional&amp;lt;int&amp;gt;&lt;/div&gt;&lt;div style=&quot;caret-color: rgb(0, 0, 0); color: rgb(0, 0, 0); font-family: Helvetica; font-size: 12px; font-style: normal; font-variant-caps: normal; font-weight: 400; letter-spacing: normal; orphans: auto; text-align: left; text-indent: 0px; text-transform: none; white-space: normal; widows: auto; word-spacing: 0px; -webkit-text-stroke-width: 0px; text-decoration: none;&quot;&gt;-featherCount: Optional&amp;lt;int&amp;gt;&lt;/div&gt;" style="text;strokeColor=none;fillColor=none;align=left;verticalAlign=top;spacingLeft=4;spacingRight=4;overflow=hidden;rotatable=0;points=[[0,0.5],[1,0.5]];portConstraint=eastwest;whiteSpace=wrap;html=1;" parent="lNqW5s7IK-G2ixFsQr0q-80" vertex="1">
          <mxGeometry y="26" width="270" height="254" as="geometry" />
        </mxCell>
        <mxCell id="lNqW5s7IK-G2ixFsQr0q-82" value="" style="line;strokeWidth=1;fillColor=none;align=left;verticalAlign=middle;spacingTop=-1;spacingLeft=3;spacingRight=3;rotatable=0;labelPosition=right;points=[];portConstraint=eastwest;strokeColor=inherit;" parent="lNqW5s7IK-G2ixFsQr0q-80" vertex="1">
          <mxGeometry y="280" width="270" height="8" as="geometry" />
        </mxCell>
        <mxCell id="lNqW5s7IK-G2ixFsQr0q-83" value="+GoldCard()" style="text;strokeColor=none;fillColor=none;align=left;verticalAlign=top;spacingLeft=4;spacingRight=4;overflow=hidden;rotatable=0;points=[[0,0.5],[1,0.5]];portConstraint=eastwest;whiteSpace=wrap;html=1;" parent="lNqW5s7IK-G2ixFsQr0q-80" vertex="1">
          <mxGeometry y="288" width="270" height="52" as="geometry" />
        </mxCell>
        <mxCell id="lNqW5s7IK-G2ixFsQr0q-87" value="ResourceCard" style="swimlane;fontStyle=1;align=center;verticalAlign=top;childLayout=stackLayout;horizontal=1;startSize=26;horizontalStack=0;resizeParent=1;resizeParentMax=0;resizeLast=0;collapsible=1;marginBottom=0;whiteSpace=wrap;html=1;" parent="WIyWlLk6GJQsqaUBKTNV-1" vertex="1">
          <mxGeometry x="405" y="1620" width="260" height="358" as="geometry" />
        </mxCell>
        <mxCell id="lNqW5s7IK-G2ixFsQr0q-88" value="-type: Type&lt;br&gt;&lt;div&gt;-visibileCorner: int&lt;/div&gt;&lt;div&gt;-color: Color&lt;/div&gt;&lt;div&gt;-NE: Cell&lt;/div&gt;&lt;div&gt;-SE: Cell&lt;/div&gt;&lt;div&gt;-SW: Cell&lt;/div&gt;&lt;div&gt;-NW: Cell&lt;/div&gt;&lt;div&gt;-points: int&lt;/div&gt;&lt;div&gt;-mushroomRequired: Optional&amp;lt;int&amp;gt;&lt;/div&gt;&lt;div&gt;-butterflyRequired: Optional&amp;lt;int&amp;gt;&lt;/div&gt;&lt;div&gt;-wolfRequired: Optional&amp;lt;int&amp;gt;&lt;/div&gt;&lt;div&gt;-leafRequired: Optional&amp;lt;int&amp;gt;&lt;/div&gt;&lt;div&gt;-coverCorners: Optional&amp;lt;boolean&amp;gt;&amp;nbsp;&lt;/div&gt;&lt;div&gt;-potionCount: Optional&amp;lt;int&amp;gt;&lt;/div&gt;&lt;div&gt;-parchmentCount: Optional&amp;lt;int&amp;gt;&lt;/div&gt;&lt;div&gt;-featherCount: Optional&amp;lt;int&amp;gt;&lt;/div&gt;&lt;div&gt;&lt;br&gt;&lt;/div&gt;" style="text;strokeColor=none;fillColor=none;align=left;verticalAlign=top;spacingLeft=4;spacingRight=4;overflow=hidden;rotatable=0;points=[[0,0.5],[1,0.5]];portConstraint=eastwest;whiteSpace=wrap;html=1;" parent="lNqW5s7IK-G2ixFsQr0q-87" vertex="1">
          <mxGeometry y="26" width="260" height="264" as="geometry" />
        </mxCell>
        <mxCell id="lNqW5s7IK-G2ixFsQr0q-89" value="" style="line;strokeWidth=1;fillColor=none;align=left;verticalAlign=middle;spacingTop=-1;spacingLeft=3;spacingRight=3;rotatable=0;labelPosition=right;points=[];portConstraint=eastwest;strokeColor=inherit;" parent="lNqW5s7IK-G2ixFsQr0q-87" vertex="1">
          <mxGeometry y="290" width="260" height="8" as="geometry" />
        </mxCell>
        <mxCell id="lNqW5s7IK-G2ixFsQr0q-90" value="ResourceCard()" style="text;strokeColor=none;fillColor=none;align=left;verticalAlign=top;spacingLeft=4;spacingRight=4;overflow=hidden;rotatable=0;points=[[0,0.5],[1,0.5]];portConstraint=eastwest;whiteSpace=wrap;html=1;" parent="lNqW5s7IK-G2ixFsQr0q-87" vertex="1">
          <mxGeometry y="298" width="260" height="60" as="geometry" />
        </mxCell>
        <mxCell id="lNqW5s7IK-G2ixFsQr0q-91" value="Extends" style="endArrow=block;endSize=16;endFill=0;html=1;rounded=0;exitX=0.5;exitY=0;exitDx=0;exitDy=0;" parent="WIyWlLk6GJQsqaUBKTNV-1" source="lNqW5s7IK-G2ixFsQr0q-80" edge="1">
          <mxGeometry x="0.0027" width="160" relative="1" as="geometry">
            <mxPoint x="534.17" y="1801.7" as="sourcePoint" />
            <mxPoint x="535" y="1990" as="targetPoint" />
            <mxPoint as="offset" />
            <Array as="points" />
          </mxGeometry>
        </mxCell>
        <mxCell id="lNqW5s7IK-G2ixFsQr0q-92" value="Extends" style="endArrow=block;endSize=16;endFill=0;html=1;rounded=0;entryX=0.484;entryY=1.176;entryDx=0;entryDy=0;entryPerimeter=0;" parent="WIyWlLk6GJQsqaUBKTNV-1" target="lNqW5s7IK-G2ixFsQr0q-75" edge="1">
          <mxGeometry width="160" relative="1" as="geometry">
            <mxPoint x="520" y="1620" as="sourcePoint" />
            <mxPoint x="610" y="1270" as="targetPoint" />
            <Array as="points">
              <mxPoint x="520" y="1570" />
            </Array>
          </mxGeometry>
        </mxCell>
        <mxCell id="lNqW5s7IK-G2ixFsQr0q-93" value="enum Item" style="swimlane;fontStyle=0;childLayout=stackLayout;horizontal=1;startSize=26;fillColor=none;horizontalStack=0;resizeParent=1;resizeParentMax=0;resizeLast=0;collapsible=1;marginBottom=0;whiteSpace=wrap;html=1;" parent="WIyWlLk6GJQsqaUBKTNV-1" vertex="1">
          <mxGeometry x="-140" y="1202" width="140" height="100" as="geometry">
            <mxRectangle x="190" y="1240" width="130" height="30" as="alternateBounds" />
          </mxGeometry>
        </mxCell>
        <mxCell id="lNqW5s7IK-G2ixFsQr0q-94" value="POTION&lt;div&gt;PARCHMENT&lt;/div&gt;&lt;div&gt;FEATHER&lt;/div&gt;" style="text;strokeColor=none;fillColor=none;align=left;verticalAlign=top;spacingLeft=4;spacingRight=4;overflow=hidden;rotatable=0;points=[[0,0.5],[1,0.5]];portConstraint=eastwest;whiteSpace=wrap;html=1;" parent="lNqW5s7IK-G2ixFsQr0q-93" vertex="1">
          <mxGeometry y="26" width="140" height="74" as="geometry" />
        </mxCell>
        <mxCell id="lNqW5s7IK-G2ixFsQr0q-95" value="enum Resource" style="swimlane;fontStyle=0;childLayout=stackLayout;horizontal=1;startSize=26;fillColor=none;horizontalStack=0;resizeParent=1;resizeParentMax=0;resizeLast=0;collapsible=1;marginBottom=0;whiteSpace=wrap;html=1;" parent="WIyWlLk6GJQsqaUBKTNV-1" vertex="1">
          <mxGeometry x="-140" y="1326" width="140" height="100" as="geometry">
            <mxRectangle x="190" y="1240" width="130" height="30" as="alternateBounds" />
          </mxGeometry>
        </mxCell>
        <mxCell id="lNqW5s7IK-G2ixFsQr0q-96" value="MUSHROOM&lt;div&gt;LEAF&lt;/div&gt;&lt;div&gt;BUTTERFLY&lt;/div&gt;&lt;div&gt;WOLF&lt;/div&gt;" style="text;strokeColor=none;fillColor=none;align=left;verticalAlign=top;spacingLeft=4;spacingRight=4;overflow=hidden;rotatable=0;points=[[0,0.5],[1,0.5]];portConstraint=eastwest;whiteSpace=wrap;html=1;" parent="lNqW5s7IK-G2ixFsQr0q-95" vertex="1">
          <mxGeometry y="26" width="140" height="74" as="geometry" />
        </mxCell>
        <mxCell id="lNqW5s7IK-G2ixFsQr0q-97" value="Corner" style="swimlane;fontStyle=1;align=center;verticalAlign=top;childLayout=stackLayout;horizontal=1;startSize=26;horizontalStack=0;resizeParent=1;resizeParentMax=0;resizeLast=0;collapsible=1;marginBottom=0;whiteSpace=wrap;html=1;" parent="WIyWlLk6GJQsqaUBKTNV-1" vertex="1">
          <mxGeometry x="1140" y="2140" width="270" height="180" as="geometry" />
        </mxCell>
        <mxCell id="lNqW5s7IK-G2ixFsQr0q-98" value="-coordinate: Coordinate&lt;div&gt;-resource: Optional &amp;lt;Resource&amp;gt;&lt;/div&gt;&lt;div&gt;-item: Optional &amp;lt;Item&amp;gt;&lt;/div&gt;&lt;div&gt;-isVisibile: boolean&lt;/div&gt;" style="text;strokeColor=none;fillColor=none;align=left;verticalAlign=top;spacingLeft=4;spacingRight=4;overflow=hidden;rotatable=0;points=[[0,0.5],[1,0.5]];portConstraint=eastwest;whiteSpace=wrap;html=1;" parent="lNqW5s7IK-G2ixFsQr0q-97" vertex="1">
          <mxGeometry y="26" width="270" height="74" as="geometry" />
        </mxCell>
        <mxCell id="lNqW5s7IK-G2ixFsQr0q-99" value="" style="line;strokeWidth=1;fillColor=none;align=left;verticalAlign=middle;spacingTop=-1;spacingLeft=3;spacingRight=3;rotatable=0;labelPosition=right;points=[];portConstraint=eastwest;strokeColor=inherit;" parent="lNqW5s7IK-G2ixFsQr0q-97" vertex="1">
          <mxGeometry y="100" width="270" height="8" as="geometry" />
        </mxCell>
        <mxCell id="lNqW5s7IK-G2ixFsQr0q-100" value="+Corner()&lt;div&gt;+getResource(): Resource&lt;/div&gt;&lt;div&gt;&lt;br&gt;&lt;/div&gt;" style="text;strokeColor=none;fillColor=none;align=left;verticalAlign=top;spacingLeft=4;spacingRight=4;overflow=hidden;rotatable=0;points=[[0,0.5],[1,0.5]];portConstraint=eastwest;whiteSpace=wrap;html=1;" parent="lNqW5s7IK-G2ixFsQr0q-97" vertex="1">
          <mxGeometry y="108" width="270" height="72" as="geometry" />
        </mxCell>
        <mxCell id="lNqW5s7IK-G2ixFsQr0q-105" value="ObjectiveCard" style="swimlane;fontStyle=1;align=center;verticalAlign=top;childLayout=stackLayout;horizontal=1;startSize=26;horizontalStack=0;resizeParent=1;resizeParentMax=0;resizeLast=0;collapsible=1;marginBottom=0;whiteSpace=wrap;html=1;" parent="WIyWlLk6GJQsqaUBKTNV-1" vertex="1">
          <mxGeometry x="160" y="1620" width="160" height="348" as="geometry" />
        </mxCell>
        <mxCell id="lNqW5s7IK-G2ixFsQr0q-106" value="-points: int&lt;div&gt;-color: Optional&amp;lt;Color&amp;gt;&lt;/div&gt;&lt;div&gt;-numParchments: int&lt;/div&gt;&lt;div&gt;-numFeathers: int&lt;/div&gt;&lt;div&gt;-numPotions: int&lt;/div&gt;&lt;div&gt;-numMushrooms:int&lt;/div&gt;&lt;div&gt;-numLeaves:int&lt;/div&gt;&lt;div&gt;-numButterflies: int&lt;/div&gt;&lt;div&gt;-numWolves: int&lt;/div&gt;&lt;div&gt;-CC: Optional&amp;lt;String&amp;gt;&lt;/div&gt;&lt;div&gt;-NN: Optional&amp;lt;String&amp;gt;&lt;/div&gt;&lt;div&gt;-NE: Optional&amp;lt;String&amp;gt;&lt;/div&gt;&lt;div&gt;-SE: Optional&amp;lt;String&amp;gt;&lt;/div&gt;&lt;div&gt;-SS: Optional&amp;lt;String&amp;gt;&lt;/div&gt;&lt;div&gt;-SW: Optional&amp;lt;String&amp;gt;&lt;/div&gt;&lt;div&gt;-NW: Optional&amp;lt;String&amp;gt;&lt;/div&gt;&lt;div&gt;&lt;br&gt;&lt;/div&gt;&lt;div&gt;&lt;br&gt;&lt;div&gt;&lt;br&gt;&lt;/div&gt;&lt;/div&gt;" style="text;strokeColor=none;fillColor=none;align=left;verticalAlign=top;spacingLeft=4;spacingRight=4;overflow=hidden;rotatable=0;points=[[0,0.5],[1,0.5]];portConstraint=eastwest;whiteSpace=wrap;html=1;" parent="lNqW5s7IK-G2ixFsQr0q-105" vertex="1">
          <mxGeometry y="26" width="160" height="234" as="geometry" />
        </mxCell>
        <mxCell id="lNqW5s7IK-G2ixFsQr0q-107" value="" style="line;strokeWidth=1;fillColor=none;align=left;verticalAlign=middle;spacingTop=-1;spacingLeft=3;spacingRight=3;rotatable=0;labelPosition=right;points=[];portConstraint=eastwest;strokeColor=inherit;" parent="lNqW5s7IK-G2ixFsQr0q-105" vertex="1">
          <mxGeometry y="260" width="160" height="8" as="geometry" />
        </mxCell>
        <mxCell id="lNqW5s7IK-G2ixFsQr0q-108" value="+ObjectiveCard()" style="text;strokeColor=none;fillColor=none;align=left;verticalAlign=top;spacingLeft=4;spacingRight=4;overflow=hidden;rotatable=0;points=[[0,0.5],[1,0.5]];portConstraint=eastwest;whiteSpace=wrap;html=1;" parent="lNqW5s7IK-G2ixFsQr0q-105" vertex="1">
          <mxGeometry y="268" width="160" height="80" as="geometry" />
        </mxCell>
        <mxCell id="lNqW5s7IK-G2ixFsQr0q-110" value="" style="endArrow=block;endSize=16;endFill=0;html=1;rounded=0;exitX=0.5;exitY=0;exitDx=0;exitDy=0;" parent="WIyWlLk6GJQsqaUBKTNV-1" source="lNqW5s7IK-G2ixFsQr0q-105" edge="1">
          <mxGeometry x="0.6454" y="-150" width="160" relative="1" as="geometry">
            <mxPoint x="700" y="1480" as="sourcePoint" />
            <mxPoint x="520" y="1380" as="targetPoint" />
            <Array as="points">
              <mxPoint x="240" y="1540" />
              <mxPoint x="520" y="1540" />
            </Array>
            <mxPoint as="offset" />
          </mxGeometry>
        </mxCell>
        <mxCell id="lNqW5s7IK-G2ixFsQr0q-111" value="" style="endArrow=block;endSize=16;endFill=0;html=1;rounded=0;" parent="WIyWlLk6GJQsqaUBKTNV-1" edge="1">
          <mxGeometry x="-0.1126" y="-125" width="160" relative="1" as="geometry">
            <mxPoint x="830" y="1660" as="sourcePoint" />
            <mxPoint x="520" y="1380" as="targetPoint" />
            <Array as="points">
              <mxPoint x="830" y="1540" />
              <mxPoint x="520" y="1540" />
            </Array>
            <mxPoint as="offset" />
          </mxGeometry>
        </mxCell>
        <mxCell id="lNqW5s7IK-G2ixFsQr0q-112" value="&lt;div&gt;AbstractDeck&lt;/div&gt;" style="swimlane;fontStyle=1;align=center;verticalAlign=top;childLayout=stackLayout;horizontal=1;startSize=26;horizontalStack=0;resizeParent=1;resizeParentMax=0;resizeLast=0;collapsible=1;marginBottom=0;whiteSpace=wrap;html=1;" parent="WIyWlLk6GJQsqaUBKTNV-1" vertex="1">
          <mxGeometry x="1190" y="980" width="160" height="86" as="geometry" />
        </mxCell>
        <mxCell id="lNqW5s7IK-G2ixFsQr0q-113" value="+ field: type" style="text;strokeColor=none;fillColor=none;align=left;verticalAlign=top;spacingLeft=4;spacingRight=4;overflow=hidden;rotatable=0;points=[[0,0.5],[1,0.5]];portConstraint=eastwest;whiteSpace=wrap;html=1;" parent="lNqW5s7IK-G2ixFsQr0q-112" vertex="1">
          <mxGeometry y="26" width="160" height="26" as="geometry" />
        </mxCell>
        <mxCell id="lNqW5s7IK-G2ixFsQr0q-114" value="" style="line;strokeWidth=1;fillColor=none;align=left;verticalAlign=middle;spacingTop=-1;spacingLeft=3;spacingRight=3;rotatable=0;labelPosition=right;points=[];portConstraint=eastwest;strokeColor=inherit;" parent="lNqW5s7IK-G2ixFsQr0q-112" vertex="1">
          <mxGeometry y="52" width="160" height="8" as="geometry" />
        </mxCell>
        <mxCell id="lNqW5s7IK-G2ixFsQr0q-115" value="+ method(type): type" style="text;strokeColor=none;fillColor=none;align=left;verticalAlign=top;spacingLeft=4;spacingRight=4;overflow=hidden;rotatable=0;points=[[0,0.5],[1,0.5]];portConstraint=eastwest;whiteSpace=wrap;html=1;" parent="lNqW5s7IK-G2ixFsQr0q-112" vertex="1">
          <mxGeometry y="60" width="160" height="26" as="geometry" />
        </mxCell>
        <mxCell id="lNqW5s7IK-G2ixFsQr0q-117" value="" style="endArrow=open;endFill=1;endSize=12;html=1;rounded=0;exitX=0.342;exitY=0.999;exitDx=0;exitDy=0;exitPerimeter=0;" parent="WIyWlLk6GJQsqaUBKTNV-1" source="lNqW5s7IK-G2ixFsQr0q-3" edge="1">
          <mxGeometry width="160" relative="1" as="geometry">
            <mxPoint x="470" y="1150" as="sourcePoint" />
            <mxPoint x="480" y="1260" as="targetPoint" />
            <Array as="points">
              <mxPoint x="410" y="1160" />
            </Array>
          </mxGeometry>
        </mxCell>
        <mxCell id="lNqW5s7IK-G2ixFsQr0q-118" value="" style="endArrow=diamondThin;endFill=1;endSize=24;html=1;rounded=0;exitX=0.5;exitY=0;exitDx=0;exitDy=0;" parent="WIyWlLk6GJQsqaUBKTNV-1" source="lNqW5s7IK-G2ixFsQr0q-97" edge="1">
          <mxGeometry width="160" relative="1" as="geometry">
            <mxPoint x="700" y="1800" as="sourcePoint" />
            <mxPoint x="1010" y="1710" as="targetPoint" />
            <Array as="points">
              <mxPoint x="1275" y="1980" />
              <mxPoint x="1270" y="1710" />
              <mxPoint x="1030" y="1710" />
            </Array>
          </mxGeometry>
        </mxCell>
        <mxCell id="lNqW5s7IK-G2ixFsQr0q-119" value="" style="endArrow=diamondThin;endFill=1;endSize=24;html=1;rounded=0;exitX=-0.007;exitY=0.937;exitDx=0;exitDy=0;entryX=0.756;entryY=1.093;entryDx=0;entryDy=0;entryPerimeter=0;exitPerimeter=0;" parent="WIyWlLk6GJQsqaUBKTNV-1" source="lNqW5s7IK-G2ixFsQr0q-98" target="lNqW5s7IK-G2ixFsQr0q-90" edge="1">
          <mxGeometry width="160" relative="1" as="geometry">
            <mxPoint x="1140" y="1770" as="sourcePoint" />
            <mxPoint x="680" y="2010" as="targetPoint" />
            <Array as="points">
              <mxPoint x="830" y="2230" />
              <mxPoint x="830" y="2030" />
              <mxPoint x="740" y="2030" />
              <mxPoint x="600" y="2030" />
            </Array>
          </mxGeometry>
        </mxCell>
        <mxCell id="lNqW5s7IK-G2ixFsQr0q-121" value="&lt;div&gt;ConcreteDeck&lt;/div&gt;&lt;div&gt;&lt;br&gt;&lt;/div&gt;" style="swimlane;fontStyle=1;align=center;verticalAlign=top;childLayout=stackLayout;horizontal=1;startSize=26;horizontalStack=0;resizeParent=1;resizeParentMax=0;resizeLast=0;collapsible=1;marginBottom=0;whiteSpace=wrap;html=1;" parent="WIyWlLk6GJQsqaUBKTNV-1" vertex="1">
          <mxGeometry x="1161" y="1246" width="160" height="224" as="geometry" />
        </mxCell>
        <mxCell id="lNqW5s7IK-G2ixFsQr0q-122" value="+ field: type" style="text;strokeColor=none;fillColor=none;align=left;verticalAlign=top;spacingLeft=4;spacingRight=4;overflow=hidden;rotatable=0;points=[[0,0.5],[1,0.5]];portConstraint=eastwest;whiteSpace=wrap;html=1;" parent="lNqW5s7IK-G2ixFsQr0q-121" vertex="1">
          <mxGeometry y="26" width="160" height="164" as="geometry" />
        </mxCell>
        <mxCell id="lNqW5s7IK-G2ixFsQr0q-123" value="" style="line;strokeWidth=1;fillColor=none;align=left;verticalAlign=middle;spacingTop=-1;spacingLeft=3;spacingRight=3;rotatable=0;labelPosition=right;points=[];portConstraint=eastwest;strokeColor=inherit;" parent="lNqW5s7IK-G2ixFsQr0q-121" vertex="1">
          <mxGeometry y="190" width="160" height="8" as="geometry" />
        </mxCell>
        <mxCell id="lNqW5s7IK-G2ixFsQr0q-124" value="+ method(type): type" style="text;strokeColor=none;fillColor=none;align=left;verticalAlign=top;spacingLeft=4;spacingRight=4;overflow=hidden;rotatable=0;points=[[0,0.5],[1,0.5]];portConstraint=eastwest;whiteSpace=wrap;html=1;" parent="lNqW5s7IK-G2ixFsQr0q-121" vertex="1">
          <mxGeometry y="198" width="160" height="26" as="geometry" />
        </mxCell>
        <mxCell id="LTXThu91iJsNA3cWkGGq-10" value="enum Type" style="swimlane;fontStyle=0;childLayout=stackLayout;horizontal=1;startSize=26;fillColor=none;horizontalStack=0;resizeParent=1;resizeParentMax=0;resizeLast=0;collapsible=1;marginBottom=0;whiteSpace=wrap;html=1;" vertex="1" parent="WIyWlLk6GJQsqaUBKTNV-1">
          <mxGeometry x="-140" y="1452" width="140" height="110" as="geometry" />
        </mxCell>
        <mxCell id="LTXThu91iJsNA3cWkGGq-11" value="RESOURCE&lt;div&gt;GOLD&lt;/div&gt;&lt;div&gt;OBJECTIVE&lt;/div&gt;&lt;div&gt;STARTER&lt;br&gt;&lt;div&gt;&lt;br&gt;&lt;/div&gt;&lt;/div&gt;" style="text;strokeColor=none;fillColor=none;align=left;verticalAlign=top;spacingLeft=4;spacingRight=4;overflow=hidden;rotatable=0;points=[[0,0.5],[1,0.5]];portConstraint=eastwest;whiteSpace=wrap;html=1;" vertex="1" parent="LTXThu91iJsNA3cWkGGq-10">
          <mxGeometry y="26" width="140" height="84" as="geometry" />
        </mxCell>
        <mxCell id="LTXThu91iJsNA3cWkGGq-15" value="enum Cell" style="swimlane;fontStyle=0;childLayout=stackLayout;horizontal=1;startSize=26;fillColor=none;horizontalStack=0;resizeParent=1;resizeParentMax=0;resizeLast=0;collapsible=1;marginBottom=0;whiteSpace=wrap;html=1;" vertex="1" parent="WIyWlLk6GJQsqaUBKTNV-1">
          <mxGeometry x="30" y="1300" width="140" height="170" as="geometry" />
        </mxCell>
        <mxCell id="LTXThu91iJsNA3cWkGGq-20" value="StarterCard" style="swimlane;fontStyle=1;align=center;verticalAlign=top;childLayout=stackLayout;horizontal=1;startSize=20;horizontalStack=0;resizeParent=1;resizeParentMax=0;resizeLast=0;collapsible=1;marginBottom=0;whiteSpace=wrap;html=1;" vertex="1" parent="WIyWlLk6GJQsqaUBKTNV-1">
          <mxGeometry x="749" y="1660" width="260" height="304" as="geometry" />
        </mxCell>
        <mxCell id="LTXThu91iJsNA3cWkGGq-21" value="-type: Type&lt;br&gt;&lt;div&gt;-BackVisibleCorners: int&lt;/div&gt;&lt;div&gt;-FrontVisibleCorners: int&lt;/div&gt;&lt;div&gt;-permanentResource1: Optional&amp;lt;Resource&amp;gt;&lt;/div&gt;&lt;div&gt;&lt;div&gt;-permanentResource2: Optional&amp;lt;Resource&amp;gt;&lt;/div&gt;&lt;/div&gt;&lt;div&gt;&lt;div&gt;-permanentResource3: Optional&amp;lt;Resource&amp;gt;&lt;/div&gt;&lt;/div&gt;&lt;div&gt;-frontNE: Cell&lt;/div&gt;&lt;div&gt;-frontSE: Cell&lt;br&gt;&lt;/div&gt;&lt;div&gt;-frontSW: Cell&lt;/div&gt;&lt;div&gt;-frontNW: Cell&lt;/div&gt;&lt;div&gt;-backNE: Cell&lt;/div&gt;&lt;div&gt;-backSE: Cell&lt;br&gt;&lt;/div&gt;&lt;div&gt;-backSW: Cell&lt;br&gt;&lt;/div&gt;&lt;div&gt;-backNW: Cell&lt;br&gt;&lt;/div&gt;&lt;div&gt;&lt;br&gt;&lt;/div&gt;&lt;div&gt;&lt;br&gt;&lt;/div&gt;&lt;div&gt;&lt;br&gt;&lt;/div&gt;&lt;div&gt;&lt;br&gt;&lt;/div&gt;&lt;div&gt;&lt;br&gt;&lt;/div&gt;" style="text;strokeColor=none;fillColor=none;align=left;verticalAlign=top;spacingLeft=4;spacingRight=4;overflow=hidden;rotatable=0;points=[[0,0.5],[1,0.5]];portConstraint=eastwest;whiteSpace=wrap;html=1;" vertex="1" parent="LTXThu91iJsNA3cWkGGq-20">
          <mxGeometry y="20" width="260" height="250" as="geometry" />
        </mxCell>
        <mxCell id="LTXThu91iJsNA3cWkGGq-22" value="" style="line;strokeWidth=1;fillColor=none;align=left;verticalAlign=middle;spacingTop=-1;spacingLeft=3;spacingRight=3;rotatable=0;labelPosition=right;points=[];portConstraint=eastwest;strokeColor=inherit;" vertex="1" parent="LTXThu91iJsNA3cWkGGq-20">
          <mxGeometry y="270" width="260" height="8" as="geometry" />
        </mxCell>
        <mxCell id="LTXThu91iJsNA3cWkGGq-23" value="StarterCard()" style="text;strokeColor=none;fillColor=none;align=left;verticalAlign=top;spacingLeft=4;spacingRight=4;overflow=hidden;rotatable=0;points=[[0,0.5],[1,0.5]];portConstraint=eastwest;whiteSpace=wrap;html=1;" vertex="1" parent="LTXThu91iJsNA3cWkGGq-20">
          <mxGeometry y="278" width="260" height="26" as="geometry" />
        </mxCell>
        <mxCell id="LTXThu91iJsNA3cWkGGq-16" value="EMPTY&lt;div&gt;NONVISIBILE&lt;/div&gt;&lt;div&gt;POTION&amp;nbsp;&lt;/div&gt;&lt;div&gt;PARCHMENT&lt;/div&gt;&lt;div&gt;FEATHER&lt;/div&gt;&lt;div&gt;MUSHROOM&lt;/div&gt;&lt;div&gt;BUTTERFLY&lt;/div&gt;&lt;div&gt;WOLF&lt;/div&gt;&lt;div&gt;LEAF&lt;br&gt;&lt;div&gt;&lt;br&gt;&lt;/div&gt;&lt;/div&gt;" style="text;strokeColor=none;fillColor=none;align=left;verticalAlign=top;spacingLeft=4;spacingRight=4;overflow=hidden;rotatable=0;points=[[0,0.5],[1,0.5]];portConstraint=eastwest;whiteSpace=wrap;html=1;" vertex="1" parent="WIyWlLk6GJQsqaUBKTNV-1">
          <mxGeometry x="40" y="1326" width="140" height="144" as="geometry" />
        </mxCell>
        <mxCell id="LTXThu91iJsNA3cWkGGq-24" value="" style="endArrow=open;html=1;endSize=12;startArrow=diamondThin;startSize=14;startFill=0;edgeStyle=orthogonalEdgeStyle;align=left;verticalAlign=bottom;rounded=0;entryX=0.5;entryY=0;entryDx=0;entryDy=0;exitX=0.004;exitY=0.579;exitDx=0;exitDy=0;exitPerimeter=0;" edge="1" parent="WIyWlLk6GJQsqaUBKTNV-1" source="lNqW5s7IK-G2ixFsQr0q-36" target="lNqW5s7IK-G2ixFsQr0q-72">
          <mxGeometry x="-1" y="3" relative="1" as="geometry">
            <mxPoint x="720" y="971" as="sourcePoint" />
            <mxPoint x="790" y="1230" as="targetPoint" />
          </mxGeometry>
        </mxCell>
        <mxCell id="LTXThu91iJsNA3cWkGGq-27" value="1" style="endArrow=open;html=1;endSize=12;startArrow=diamondThin;startSize=14;startFill=0;edgeStyle=orthogonalEdgeStyle;align=left;verticalAlign=bottom;rounded=0;exitX=-0.012;exitY=0.28;exitDx=0;exitDy=0;exitPerimeter=0;entryX=1;entryY=0.5;entryDx=0;entryDy=0;" edge="1" parent="WIyWlLk6GJQsqaUBKTNV-1" source="lNqW5s7IK-G2ixFsQr0q-122" target="lNqW5s7IK-G2ixFsQr0q-73">
          <mxGeometry x="-1" y="3" relative="1" as="geometry">
            <mxPoint x="930" y="1320" as="sourcePoint" />
            <mxPoint x="610" y="1280" as="targetPoint" />
            <Array as="points">
              <mxPoint x="920" y="1318" />
              <mxPoint x="920" y="1315" />
            </Array>
          </mxGeometry>
        </mxCell>
        <mxCell id="LTXThu91iJsNA3cWkGGq-29" value="Extends" style="endArrow=block;endSize=16;endFill=0;html=1;rounded=0;entryX=0.494;entryY=1.231;entryDx=0;entryDy=0;entryPerimeter=0;" edge="1" parent="WIyWlLk6GJQsqaUBKTNV-1" target="lNqW5s7IK-G2ixFsQr0q-115">
          <mxGeometry width="160" relative="1" as="geometry">
            <mxPoint x="1269" y="1240" as="sourcePoint" />
            <mxPoint x="610" y="1280" as="targetPoint" />
          </mxGeometry>
        </mxCell>
        <mxCell id="LTXThu91iJsNA3cWkGGq-31" value="" style="endArrow=open;endFill=1;endSize=12;html=1;rounded=0;exitX=0.689;exitY=1.012;exitDx=0;exitDy=0;exitPerimeter=0;entryX=-0.012;entryY=0.33;entryDx=0;entryDy=0;entryPerimeter=0;" edge="1" parent="WIyWlLk6GJQsqaUBKTNV-1" source="lNqW5s7IK-G2ixFsQr0q-30" target="LTXThu91iJsNA3cWkGGq-33">
          <mxGeometry width="160" relative="1" as="geometry">
            <mxPoint x="1430" y="950" as="sourcePoint" />
            <mxPoint x="1590" y="950" as="targetPoint" />
            <Array as="points">
              <mxPoint x="1440" y="950" />
            </Array>
          </mxGeometry>
        </mxCell>
        <mxCell id="LTXThu91iJsNA3cWkGGq-32" value="CommonBoardNode" style="swimlane;fontStyle=1;align=center;verticalAlign=top;childLayout=stackLayout;horizontal=1;startSize=26;horizontalStack=0;resizeParent=1;resizeParentMax=0;resizeLast=0;collapsible=1;marginBottom=0;whiteSpace=wrap;html=1;" vertex="1" parent="WIyWlLk6GJQsqaUBKTNV-1">
          <mxGeometry x="1620" y="910" width="230" height="150" as="geometry" />
        </mxCell>
        <mxCell id="LTXThu91iJsNA3cWkGGq-33" value="- nodeNumber: int&lt;div&gt;- players: boolean[]&lt;/div&gt;&lt;div&gt;&lt;br&gt;&lt;/div&gt;" style="text;strokeColor=none;fillColor=none;align=left;verticalAlign=top;spacingLeft=4;spacingRight=4;overflow=hidden;rotatable=0;points=[[0,0.5],[1,0.5]];portConstraint=eastwest;whiteSpace=wrap;html=1;" vertex="1" parent="LTXThu91iJsNA3cWkGGq-32">
          <mxGeometry y="26" width="230" height="44" as="geometry" />
        </mxCell>
        <mxCell id="LTXThu91iJsNA3cWkGGq-34" value="" style="line;strokeWidth=1;fillColor=none;align=left;verticalAlign=middle;spacingTop=-1;spacingLeft=3;spacingRight=3;rotatable=0;labelPosition=right;points=[];portConstraint=eastwest;strokeColor=inherit;" vertex="1" parent="LTXThu91iJsNA3cWkGGq-32">
          <mxGeometry y="70" width="230" height="8" as="geometry" />
        </mxCell>
        <mxCell id="LTXThu91iJsNA3cWkGGq-35" value="+CommonBoardNode()&lt;div&gt;+setPlayer(int, boolean): void&lt;/div&gt;&lt;div&gt;+isPlayerPresent(int): boolean&lt;/div&gt;&lt;div&gt;+getNodeNumber():int&lt;/div&gt;" style="text;strokeColor=none;fillColor=none;align=left;verticalAlign=top;spacingLeft=4;spacingRight=4;overflow=hidden;rotatable=0;points=[[0,0.5],[1,0.5]];portConstraint=eastwest;whiteSpace=wrap;html=1;" vertex="1" parent="LTXThu91iJsNA3cWkGGq-32">
          <mxGeometry y="78" width="230" height="72" as="geometry" />
        </mxCell>
      </root>
    </mxGraphModel>
  </diagram>
</mxfile>
